#!OML:ASF I:\Actors\actors\Patient Classification 1\Patient 1\Session 1\Subject1.ASF
:FULLY-SPECIFIED
:DEGREES
1003
root 0.661622 17.5545 9.50478 13.2342 -13.7334 -10.9762
lowerback 2.08247 2.01026 9.78756
upperback -9.18403 3.376 -0.838639
thorax -10.4999 0.748908 -6.7428
lowerneck -11.5134 8.69706 13.7037
upperneck 12.0223 12.2022 -17.4674
head 7.56498 5.25131 -6.6796
rclavicle 6.95746e-015 4.77083e-015
rhumerus 97.9958 32.972 -11.8402
rradius 92.6099
rwrist 35.7959
rhand -20.6097 -41.8506
rfingers 7.12502
rthumb 5.75122 -71.7525
lclavicle 6.95746e-015 4.77083e-015
lhumerus 8.324 18.2656 82.1423
lradius 107.062
lwrist 104.516
lhand -29.8979 -3.2039
lfingers 7.12502
lthumb -3.21884 26.7515
rfemur -7.5109 23.7581 24.3152
rtibia 2.08762
rfoot -10.9823 -14.6966
rtoes -2.35344
lfemur 9.325 -45.0179 -13.6138
ltibia -4.68254
lfoot -49.2167 56.966
ltoes 27.2342
1004
root 0.663985 17.5522 9.50292 13.2507 -13.6724 -11.0428
lowerback 2.09019 1.9482 9.82139
upperback -9.18405 3.30165 -0.767489
thorax -10.5221 0.711931 -6.67761
lowerneck -11.4666 8.75393 13.7116
upperneck 11.9345 12.3012 -17.6217
head 7.55783 5.29182 -6.7204
rclavicle -4.27387e-015 1.27222e-014
rhumerus 96.9872 33.2558 -11.8138
rradius 92.6651
rwrist 35.4544
rhand -20.6593 -41.7951
rfingers 7.12502
rthumb 5.70333 -71.6984
lclavicle -4.27387e-015 1.27222e-014
lhumerus 8.18244 18.5091 82.0218
lradius 107.109
lwrist 104.563
lhand -29.9219 -3.05196
lfingers 7.12502
lthumb -3.24206 26.9031
rfemur -7.51822 23.6965 24.3908
rtibia 2.08644
rfoot -10.9579 -14.6877
rtoes -2.62599
lfemur 9.24991 -44.9202 -13.4566
ltibia -4.69853
lfoot -48.873 56.9477
ltoes 27.1302
1005
root 0.664535 17.5506 9.50262 13.2416 -13.6528 -11.0354
lowerback 2.09038 1.90589 9.77319
upperback -9.17501 3.24352 -0.728062
thorax -10.5259 0.689841 -6.60179
lowerneck -11.4755 8.78099 13.5591
upperneck 11.8531 12.3504 -17.6049
head 7.53076 5.31039 -6.68001
rclavicle 1.41137e-014 3.02153e-014
rhumerus 95.7785 33.6182 -11.9307
rradius 92.7604
rwrist 35.511
rhand -20.7166 -41.7235
rfingers 7.12502
rthumb 5.648 -71.6283
lclavicle 1.41137e-014 3.02153e-014
lhumerus 8.05341 18.7019 81.9489
lradius 107.174
lwrist 104.626
lhand -30.0546 -2.94607
lfingers 7.12502
lthumb -3.37021 27.007
rfemur -7.50156 23.669 24.3899
rtibia 2.08711
rfoot -10.9748 -14.6897
rtoes -2.61083
lfemur 9.20128 -44.7938 -13.4065
ltibia -4.70548
lfoot -48.6026 56.8859
ltoes 27.0779
1006
root 0.663759 17.5487 9.50397 13.2154 -13.6602 -11.0006
lowerback 2.0804 1.86558 9.68196
upperback -9.17058 3.18326 -0.694342
thorax -10.5296 0.669966 -6.50745
lowerneck -11.4343 8.81522 13.4836
upperneck 11.7537 12.406 -17.6279
head 7.49805 5.33592 -6.66683
rclavicle 5.1684e-015 -2.46493e-014
rhumerus 94.5052 33.9546 -12.1665
rradius 92.9084
rwrist 35.6903
rhand -20.8687 -41.7795
rfingers 7.12502
rthumb 5.50111 -71.6881
lclavicle 5.1684e-015 -2.46493e-014
lhumerus 7.93964 18.8974 81.8983
lradius 107.222
lwrist 104.601
lhand -29.9956 -3.01578
lfingers 7.12502
lthumb -3.31324 26.9382
rfemur -7.4632 23.7461 24.367
rtibia 2.08977
rfoot -11.0647 -14.7693
rtoes -2.22757
lfemur 9.27533 -44.8443 -13.5028
ltibia -4.72067
lfoot -48.8111 56.8302
ltoes 27.2757
1007
root 0.662696 17.5466 9.50584 13.2136 -13.6892 -11.0068
lowerback 2.08194 1.83505 9.63122
upperback -9.19491 3.14271 -0.654328
thorax -10.5691 0.653303 -6.43227
lowerneck -11.2832 8.84546 13.5352
upperneck 11.6224 12.4583 -17.7482
head 7.45066 5.36553 -6.71235
rclavicle -8.84592e-015 1.35174e-014
rhumerus 93.2375 34.3126 -12.5188
rradius 93.0811
rwrist 35.6714
rhand -21.0064 -41.8756
rfingers 7.12502
rthumb 5.36816 -71.7876
lclavicle -8.84592e-015 1.35174e-014
lhumerus 7.75931 19.0619 81.7722
lradius 107.264
lwrist 104.562
lhand -29.8241 -3.19198
lfingers 7.12502
lthumb -3.14762 26.7645
rfemur -7.45319 23.845 24.3827
rtibia 2.10768
rfoot -11.0905 -14.8518
rtoes -2.38154
lfemur 9.3328 -44.8296 -13.5337
ltibia -4.74522
lfoot -48.9133 56.7791
ltoes 27.3903
1008
root 0.662212 17.5447 9.50884 13.2311 -13.7109 -10.9974
lowerback 2.03834 1.81602 9.58388
upperback -9.2136 3.11166 -0.623896
thorax -10.5723 0.642969 -6.36779
lowerneck -11.2115 8.87915 13.5613
upperneck 11.5657 12.5117 -17.8095
head 7.43533 5.39283 -6.73162
rclavicle 7.7526e-015 -2.70347e-014
rhumerus 91.9353 34.6636 -12.9346
rradius 93.2924
rwrist 35.6601
rhand -20.8908 -41.887
rfingers 7.12502
rthumb 5.47981 -71.7962
lclavicle 7.7526e-015 -2.70347e-014
lhumerus 7.59902 19.1678 81.7026
lradius 107.292
lwrist 104.453
lhand -29.7258 -3.25915
lfingers 7.12502
lthumb -3.05269 26.6987
rfemur -7.45882 23.9276 24.3644
rtibia 2.1116
rfoot -11.1121 -14.9144
rtoes -2.58481
lfemur 9.35064 -44.8126 -13.5532
ltibia -4.76917
lfoot -48.8909 56.8104
ltoes 27.3725
1009
root 0.662359 17.5433 9.51169 13.2369 -13.6941 -10.9823
lowerback 1.99015 1.78584 9.55393
upperback -9.21455 3.06594 -0.588585
thorax -10.5548 0.626114 -6.30568
lowerneck -11.3046 8.93039 13.4273
upperneck 11.6383 12.5877 -17.6959
head 7.47041 5.42393 -6.65659
rclavicle -4.54223e-014 1.35174e-014
rhumerus 90.642 34.9703 -13.3333
rradius 93.51
rwrist 35.7019
rhand -20.7131 -41.9564
rfingers 7.12502
rthumb 5.65132 -71.861
lclavicle -4.54223e-014 1.35174e-014
lhumerus 7.50082 19.2654 81.71
lradius 107.306
lwrist 104.133
lhand -29.6264 -3.29415
lfingers 7.12502
lthumb -2.95668 26.6651
rfemur -7.44001 24.0029 24.3505
rtibia 2.10304
rfoot -11.189 -15.0032
rtoes -2.61539
lfemur 9.37643 -44.89 -13.5879
ltibia -4.78945
lfoot -48.9165 56.8973
ltoes 27.2998
1010
root 0.663674 17.5424 9.51425 13.2147 -13.6794 -10.9404
lowerback 1.98727 1.73121 9.50573
upperback -9.21312 2.99235 -0.535619
thorax -10.5682 0.596343 -6.21374
lowerneck -11.4278 9.01521 13.2474
upperneck 11.7404 12.7189 -17.5733
head 7.52567 5.47733 -6.56216
rclavicle -2.48481e-014 7.95139e-015
rhumerus 89.4605 35.2583 -13.6487
rradius 93.6678
rwrist 35.5938
rhand -20.6662 -42.1609
rfingers 7.12502
rthumb 5.6966 -72.0643
lclavicle -2.48481e-014 7.95139e-015
lhumerus 7.36375 19.5039 81.6351
lradius 107.374
lwrist 103.989
lhand -29.4956 -3.38125
lfingers 7.12502
lthumb -2.83034 26.5797
rfemur -7.40658 23.9929 24.3196
rtibia 2.10456
rfoot -11.2149 -15.0489
rtoes -3.09759
lfemur 9.39536 -44.9124 -13.652
ltibia -4.78315
lfoot -49.0128 56.8151
ltoes 27.4307
1011
root 0.665627 17.5415 9.51779 13.1669 -13.7033 -10.8259
lowerback 1.97383 1.65999 9.37083
upperback -9.20524 2.88869 -0.47455
thorax -10.5745 0.560465 -6.0608
lowerneck -11.4215 9.1126 13.1528
upperneck 11.7241 12.8734 -17.5858
head 7.53993 5.5458 -6.52778
rclavicle -6.65929e-015 -3.81667e-014
rhumerus 88.37 35.5903 -13.9555
rradius 93.7828
rwrist 35.4506
rhand -20.643 -42.2136
rfingers 7.12502
rthumb 5.71907 -72.1164
lclavicle -6.65929e-015 -3.81667e-014
lhumerus 7.20192 19.9026 81.5491
lradius 107.542
lwrist 104.218
lhand -29.6342 -3.33232
lfingers 7.12502
lthumb -2.9642 26.6268
rfemur -7.36666 23.9047 24.2024
rtibia 2.11445
rfoot -11.2169 -14.9963
rtoes -3.35282
lfemur 9.40191 -44.8043 -13.795
ltibia -4.7507
lfoot -49.083 56.582
ltoes 27.7023
1012
root 0.666857 17.5406 9.52149 13.1451 -13.7089 -10.7056
lowerback 1.91968 1.57933 9.2234
upperback -9.21846 2.76805 -0.411025
thorax -10.5829 0.516666 -5.89527
lowerneck -11.2595 9.19057 13.1369
upperneck 11.5901 13.0011 -17.6852
head 7.49641 5.61032 -6.54403
rclavicle 1.78906e-015 -1.27222e-014
rhumerus 87.3044 36.0128 -14.3059
rradius 93.8804
rwrist 35.2376
rhand -20.7621 -42.1573
rfingers 7.12502
rthumb 5.60402 -72.0632
lclavicle 1.78906e-015 -1.27222e-014
lhumerus 7.00957 20.2513 81.4546
lradius 107.632
lwrist 104.161
lhand -29.6971 -3.00052
lfingers 7.12502
lthumb -3.0249 26.9578
rfemur -7.36084 23.8683 24.0629
rtibia 2.12629
rfoot -11.2358 -14.9855
rtoes -3.17609
lfemur 9.31032 -44.5832 -13.8495
ltibia -4.72196
lfoot -48.8304 56.3866
ltoes 27.6766
1013
root 0.667504 17.5388 9.5258 13.1612 -13.6361 -10.6357
lowerback 1.83136 1.49681 9.15456
upperback -9.25953 2.64788 -0.356545
thorax -10.6007 0.464394 -5.78302
lowerneck -11.0681 9.24395 13.1853
upperneck 11.4924 13.0942 -17.8004
head 7.45922 5.66118 -6.58326
rclavicle 1.36167e-014 1.43125e-014
rhumerus 86.2101 36.4594 -14.6794
rradius 94.0059
rwrist 34.867
rhand -20.8831 -42.246
rfingers 7.12502
rthumb 5.48717 -72.1549
lclavicle 1.36167e-014 1.43125e-014
lhumerus 6.78157 20.4819 81.317
lradius 107.611
lwrist 103.805
lhand -29.3933 -2.41458
lfingers 7.12502
lthumb -2.73156 27.5477
rfemur -7.37836 23.9049 23.9713
rtibia 2.11114
rfoot -11.2731 -15.0944
rtoes -3.11959
lfemur 9.18116 -44.4599 -13.8121
ltibia -4.70947
lfoot -48.5026 56.3096
ltoes 27.5173
1014
root 0.667091 17.5362 9.53185 13.1515 -13.5559 -10.6236
lowerback 1.74714 1.41506 9.13982
upperback -9.27804 2.53341 -0.288137
thorax -10.5936 0.41312 -5.68621
lowerneck -10.8755 9.30011 13.2705
upperneck 11.3562 13.1855 -17.951
head 7.41496 5.71168 -6.64073
rclavicle -6.95746e-016 2.06736e-014
rhumerus 85.1184 36.8708 -15.0532
rradius 94.1745
rwrist 34.5598
rhand -20.721 -42.4066
rfingers 7.12502
rthumb 5.64374 -72.3114
lclavicle -6.95746e-016 2.06736e-014
lhumerus 6.57564 20.7543 81.1803
lradius 107.651
lwrist 103.708
lhand -29.2011 -2.0139
lfingers 7.12502
lthumb -2.54597 27.9507
rfemur -7.33282 23.9183 23.9703
rtibia 2.0836
rfoot -11.327 -15.1787
rtoes -3.09157
lfemur 9.23479 -44.6113 -13.8808
ltibia -4.69195
lfoot -48.635 56.3351
ltoes 27.5437
1015
root 0.665584 17.534 9.53818 13.1225 -13.5203 -10.6514
lowerback 1.67932 1.3088 9.11268
upperback -9.2573 2.39048 -0.150517
thorax -10.5583 0.355515 -5.5043
lowerneck -10.7837 9.42105 13.2161
upperneck 11.226 13.3679 -18.0239
head 7.39034 5.79895 -6.63114
rclavicle 2.37548e-014 3.97569e-015
rhumerus 84.1717 37.2596 -15.3519
rradius 94.335
rwrist 34.3544
rhand -20.4373 -42.4527
rfingers 7.12502
rthumb 5.91767 -72.3501
lclavicle 2.37548e-014 3.97569e-015
lhumerus 6.40408 21.1935 81.0486
lradius 107.725
lwrist 103.779
lhand -29.3238 -1.94223
lfingers 7.12502
lthumb -2.66441 28.0209
rfemur -7.26985 23.943 24.0302
rtibia 2.10067
rfoot -11.3735 -15.2391
rtoes -3.06647
lfemur 9.38929 -44.8124 -13.9803
ltibia -4.70279
lfoot -48.5848 56.6047
ltoes 27.1459
1016
root 0.664243 17.5328 9.54377 13.1053 -13.4845 -10.6796
lowerback 1.60778 1.29414 9.11069
upperback -9.2571 2.36672 -0.10056
thorax -10.5205 0.348804 -5.44377
lowerneck -10.9036 9.47428 13.1584
upperneck 11.4132 13.4445 -17.8838
head 7.46847 5.83079 -6.55997
rclavicle -2.90226e-014 -2.14687e-014
rhumerus 82.826 37.6458 -15.8572
rradius 94.4619
rwrist 34.2192
rhand -20.3496 -42.3812
rfingers 7.12502
rthumb 6.00226 -72.2762
lclavicle -2.90226e-014 -2.14687e-014
lhumerus 6.26412 21.3065 80.9526
lradius 107.723
lwrist 103.83
lhand -29.5892 -2.06072
lfingers 7.12502
lthumb -2.92074 27.899
rfemur -7.24944 23.9784 24.0869
rtibia 2.16757
rfoot -11.4303 -15.3158
rtoes -3.12804
lfemur 9.45101 -44.84 -13.9818
ltibia -4.73202
lfoot -47.9092 57.0146
ltoes 26.2468
